<?xml version="1.0" encoding="UTF-8"?>
<svg version="1.1" xmlns="http://www.w3.org/2000/svg" width="512" height="512">
<path d="M0 0 C3.78806451 0.60636284 6.82895704 1.71161456 10.25 3.4375 C11.12140625 3.86933594 11.9928125 4.30117187 12.890625 4.74609375 C15 6 15 6 16 8 C17.65035552 8.70607994 19.32022875 9.3670776 21 10 C24.10109491 11.56142849 27.12307394 13.26061042 30.14941406 14.96191406 C31.49276715 15.7154678 32.83883525 16.46418797 34.18652344 17.20996094 C44.16903762 22.74665437 53.58229035 28.21152114 62 36 C62.79664063 36.72832031 63.59328125 37.45664063 64.4140625 38.20703125 C74.86532596 48.18641493 82.54593724 60.41062992 84.5390625 74.92578125 C84.69117188 75.94027344 84.84328125 76.95476562 85 78 C85.66 78.33 86.32 78.66 87 79 C86.34 79 85.68 79 85 79 C85 79.99 85 80.98 85 82 C85.66 82 86.32 82 87 82 C87 82.66 87 83.32 87 84 C86.34 84 85.68 84 85 84 C85.33 84.66 85.66 85.32 86 86 C86.16195011 88.29558371 86.25982915 90.5957644 86.32958984 92.89599609 C86.36240995 93.96115889 86.36240995 93.96115889 86.3958931 95.04784012 C86.46570465 97.41457467 86.52670701 99.78141555 86.5859375 102.1484375 C86.60751293 102.96771099 86.62908836 103.78698448 86.6513176 104.63108444 C87.12620912 123.13738122 86.96082398 141.62258415 86.66339111 160.13012695 C86.61129886 163.51537781 86.56820103 166.90072118 86.52509499 170.28609657 C86.48211375 173.60119688 86.43476529 176.91622332 86.38599777 180.23124313 C86.36342316 181.78514485 86.34188403 183.33906204 86.32149124 184.89299393 C86.18023209 195.32999409 85.94578863 205.71511724 84 216 C83.34 216 82.68 216 82 216 C81.8659375 216.7321875 81.731875 217.464375 81.59375 218.21875 C79.9998557 225.68488645 76.65908929 231.88676472 72.375 238.125 C71.97861328 238.70572266 71.58222656 239.28644531 71.17382812 239.88476562 C70.17209348 241.29807884 69.0919109 242.65513676 68 244 C67.34 244 66.68 244 66 244 C65.7421875 244.59296875 65.484375 245.1859375 65.21875 245.796875 C63.90230105 248.17660965 62.57419218 249.50978792 60.5 251.25 C59.58734375 252.03117187 59.58734375 252.03117187 58.65625 252.828125 C57 254 57 254 55 254 C55 254.66 55 255.32 55 256 C54.071875 256.433125 54.071875 256.433125 53.125 256.875 C50.86674235 257.93720042 50.86674235 257.93720042 49 260 C46.78454025 261.19249779 44.57007273 262.33103095 42.3125 263.4375 C41.71244141 263.73720703 41.11238281 264.03691406 40.49414062 264.34570312 C30.68736262 269.20169095 20.91173894 272.59720989 10.12890625 274.5703125 C7.82676919 274.98980777 7.82676919 274.98980777 5 276 C1.8125 275.0625 1.8125 275.0625 -1 274 C-2.68394273 266.92067652 -3.28884581 260.26212799 -3.26069641 252.99845886 C-3.26452196 251.93580238 -3.26834751 250.8731459 -3.27228898 249.77828771 C-3.28255194 246.24170755 -3.27863968 242.70529178 -3.2746582 239.16870117 C-3.27900819 236.62364554 -3.2841923 234.07859121 -3.29014587 231.53353882 C-3.30212532 225.35425097 -3.30469185 219.17502308 -3.30234561 212.99572589 C-3.30055897 207.97407249 -3.30231947 202.95243225 -3.30657005 197.93078041 C-3.30716524 197.21476036 -3.30776043 196.49874032 -3.30837366 195.76102269 C-3.30958545 194.30628369 -3.31079958 192.85154468 -3.31201603 191.39680568 C-3.32287465 177.77701489 -3.32073615 164.1572489 -3.31463119 150.53745673 C-3.30945495 138.07720941 -3.32073904 125.6170401 -3.33972941 113.15680822 C-3.35909465 100.35228958 -3.36736666 87.54780789 -3.36360615 74.74327451 C-3.36169321 67.55840408 -3.36419142 60.37360016 -3.37832069 53.18874168 C-3.39146014 46.43929594 -3.38899269 39.69003237 -3.37590981 32.94057846 C-3.37353639 30.46094396 -3.37630592 27.98129854 -3.38453293 25.50167656 C-3.39493643 22.12314113 -3.38695111 18.74513875 -3.3742218 15.36662292 C-3.38159609 14.38025272 -3.38897037 13.39388252 -3.39656812 12.37762231 C-3.35714797 7.42182487 -3.22281353 4.04231546 0 0 Z " fill="#FFFFFF" transform="translate(131,152)"/>
<path d="M0 0 C0 0.66 0 1.32 0 2 C1.2684375 2.185625 1.2684375 2.185625 2.5625 2.375 C13.08782326 4.28869514 22.11326249 8.99372161 31.0625 14.7734375 C36.12195825 17.97640099 41.34316253 20.99273509 47 23 C47 23.66 47 24.32 47 25 C47.85980469 25.2578125 48.71960938 25.515625 49.60546875 25.78125 C53.12494521 27.0448595 56.08579371 28.61421237 59.3125 30.5 C59.90063477 30.84095703 60.48876953 31.18191406 61.09472656 31.53320312 C64.61779911 33.58145851 68.11979732 35.66480288 71.62109375 37.75 C72.77581177 38.43545898 72.77581177 38.43545898 73.95385742 39.13476562 C75.46838879 40.03527168 76.98034114 40.94013146 78.48950195 41.84960938 C81.99998182 44.17333462 81.99998182 44.17333462 86 45 C86 45.66 86 46.32 86 47 C86.73089844 47.27972656 87.46179688 47.55945313 88.21484375 47.84765625 C90.78284918 48.91015499 93.13485815 50.08969884 95.5625 51.4375 C96.50480469 51.95699219 97.44710937 52.47648437 98.41796875 53.01171875 C100.40625913 54.11450248 102.39375338 55.21871599 104.38134766 56.32275391 C106.14412986 57.30105015 107.90757626 58.27815039 109.67163086 59.25415039 C111.45129998 60.23889099 113.22950071 61.22629079 115.00610352 62.21655273 C115.83682373 62.67618408 116.66754395 63.13581543 117.5234375 63.609375 C118.26513184 64.02155273 119.00682617 64.43373047 119.77099609 64.85839844 C122.04022666 66.07338953 122.04022666 66.07338953 124.71728516 67.02441406 C127 68 127 68 128 70 C129.63326862 70.99454393 131.30786982 71.92178148 133 72.8125 C133.98613281 73.33714844 134.97226562 73.86179687 135.98828125 74.40234375 C136.98214844 74.92957031 137.97601563 75.45679688 139 76 C140.73167905 76.95378603 142.4611307 77.91163653 144.1875 78.875 C144.92355469 79.28492188 145.65960938 79.69484375 146.41796875 80.1171875 C146.94003906 80.40851563 147.46210938 80.69984375 148 81 C147.68997854 84.19267711 147.42853465 85.61339633 145.00390625 87.80078125 C143.79541016 88.54908203 143.79541016 88.54908203 142.5625 89.3125 C141.75941406 89.82425781 140.95632813 90.33601563 140.12890625 90.86328125 C138 92 138 92 136 92 C136 92.66 136 93.32 136 94 C134.25318707 94.98484108 132.5024149 95.96266187 130.75 96.9375 C129.77546875 97.48277344 128.8009375 98.02804688 127.796875 98.58984375 C125.46389591 99.76610835 123.54649238 100.52101691 121 101 C121 101.66 121 102.32 121 103 C119.71086513 103.67154933 118.41859796 104.33708859 117.125 105 C116.40570313 105.37125 115.68640625 105.7425 114.9453125 106.125 C113 107 113 107 111 107 C111 107.66 111 108.32 111 109 C109.3767313 109.6708712 107.75132422 110.33657029 106.125 111 C105.22007812 111.37125 104.31515625 111.7425 103.3828125 112.125 C101 113 101 113 99 113 C98.67 113.66 98.34 114.32 98 115 C96.03125 115.5625 96.03125 115.5625 93.5 116 C90.23034911 116.58567795 87.0286239 117.23549671 83.8125 118.0625 C64.65404669 122.18223734 48.54037551 117.64524462 31 110 C29.33580297 109.3271921 27.6701018 108.65801384 26 108 C26 107.34 26 106.68 26 106 C25.28328125 105.72800781 24.5665625 105.45601563 23.828125 105.17578125 C21.0133873 104.00556571 18.41534685 102.66435155 15.75 101.1875 C14.78449219 100.65382813 13.81898438 100.12015625 12.82421875 99.5703125 C11.89222656 99.05210937 10.96023437 98.53390625 10 98 C9.24332031 97.58492188 8.48664063 97.16984375 7.70703125 96.7421875 C2.29731563 93.76635122 -3.00948852 90.63481736 -8.30078125 87.453125 C-10.63125203 86.19851555 -12.4748763 85.62405803 -15 85 C-15.33 84.34 -15.66 83.68 -16 83 C-17.48666456 82.08766058 -19.01690557 81.24600021 -20.5625 80.4375 C-25.44169278 77.84542883 -30.25964799 75.16697114 -35.0625 72.4375 C-40.20857769 69.52249211 -45.38939243 66.76779615 -50.70703125 64.17578125 C-54.09770077 62.43712448 -57.32428561 60.4511948 -60.57421875 58.46484375 C-63.52880347 56.68067423 -66.54136842 55.02018008 -69.56640625 53.359375 C-73.5150382 51.15371863 -77.4047158 48.84767735 -81.30078125 46.55078125 C-83.50536807 45.28418072 -85.7109838 44.1037299 -88 43 C-87.67 40.69 -87.34 38.38 -87 36 C-86.34 36 -85.68 36 -85 36 C-84.75636719 35.44054687 -84.51273438 34.88109375 -84.26171875 34.3046875 C-80.32615484 27.11588655 -73.42430251 20.98211215 -67 16 C-66.34 16 -65.68 16 -65 16 C-65 15.34 -65 14.68 -65 14 C-42.76916368 1.74034762 -25.42664507 -1.72327767 0 0 Z " fill="#FFFFFF" transform="translate(228,74)"/>
<path d="M0 0 C2.70133718 1.2712175 2.98152652 2.29005473 4.125 5 C4.51902727 6.43273573 4.86234667 7.8801564 5.16015625 9.3359375 C5.32966797 10.15320313 5.49917969 10.97046875 5.67382812 11.8125 C5.84333984 12.658125 6.01285156 13.50375 6.1875 14.375 C6.36087891 15.21289062 6.53425781 16.05078125 6.71289062 16.9140625 C11.31087319 39.32262121 7.84257364 60.68764615 -2.875 81 C-3.535 81 -4.195 81 -4.875 81 C-5.184375 81.78375 -5.49375 82.5675 -5.8125 83.375 C-6.875 86 -6.875 86 -7.875 88 C-8.535 88 -9.195 88 -9.875 88 C-10.13796875 88.57878906 -10.4009375 89.15757812 -10.671875 89.75390625 C-14.00241629 95.97163756 -19.4682066 100.62307201 -24.875 105 C-25.205 105.66 -25.535 106.32 -25.875 107 C-26.535 107 -27.195 107 -27.875 107 C-27.875 107.66 -27.875 108.32 -27.875 109 C-34.5 113 -34.5 113 -37.875 113 C-37.875 113.66 -37.875 114.32 -37.875 115 C-42.25961538 118 -42.25961538 118 -44.875 118 C-45.205 118.66 -45.535 119.32 -45.875 120 C-48.50081138 121.57548683 -49.74599787 122 -52.875 122 C-52.875 122.66 -52.875 123.32 -52.875 124 C-53.71804688 124.40992188 -54.56109375 124.81984375 -55.4296875 125.2421875 C-56.52539062 125.78101563 -57.62109375 126.31984375 -58.75 126.875 C-59.84054687 127.40867187 -60.93109375 127.94234375 -62.0546875 128.4921875 C-64.91382547 129.84535937 -64.91382547 129.84535937 -66.875 132 C-67.865 132 -68.855 132 -69.875 132 C-69.875 132.66 -69.875 133.32 -69.875 134 C-70.72964844 134.40992188 -71.58429688 134.81984375 -72.46484375 135.2421875 C-73.56957031 135.78101563 -74.67429687 136.31984375 -75.8125 136.875 C-76.91464844 137.40867187 -78.01679688 137.94234375 -79.15234375 138.4921875 C-81.96904511 139.71659845 -81.96904511 139.71659845 -82.875 142 C-84.19648827 142.37756808 -85.53335921 142.7018576 -86.875 143 C-90.63039273 144.09919269 -90.63039273 144.09919269 -92.875 147 C-94.65206084 148.10103609 -96.47179085 149.13403304 -98.3125 150.125 C-99.30121094 150.66382813 -100.28992188 151.20265625 -101.30859375 151.7578125 C-103.875 153 -103.875 153 -105.875 153 C-105.875 153.66 -105.875 154.32 -105.875 155 C-106.60855713 155.27851807 -107.34211426 155.55703613 -108.09790039 155.84399414 C-110.65097288 156.90674563 -112.92978639 158.09385217 -115.30859375 159.49609375 C-116.12263672 159.97240234 -116.93667969 160.44871094 -117.77539062 160.93945312 C-118.61263672 161.43380859 -119.44988281 161.92816406 -120.3125 162.4375 C-134.86087385 171 -134.86087385 171 -137.875 171 C-137.875 171.66 -137.875 172.32 -137.875 173 C-138.865 173 -139.855 173 -140.875 173 C-140.875 173.66 -140.875 174.32 -140.875 175 C-141.9475 175.45375 -143.02 175.9075 -144.125 176.375 C-146.75562317 177.50088537 -149.33500396 178.67920206 -151.875 180 C-151.875 179.01 -151.875 178.02 -151.875 177 C-152.535 177 -153.195 177 -153.875 177 C-153.96862064 169.58380155 -154.03922298 162.16773517 -154.08224869 154.75106049 C-154.10292272 151.3053415 -154.13085802 147.86003339 -154.17675781 144.41455078 C-154.64537531 108.2360421 -154.64537531 108.2360421 -145.625 93.5625 C-145.23296387 92.89984131 -144.84092773 92.23718262 -144.43701172 91.55444336 C-138.95405536 82.53156299 -129.92989987 70.59486707 -119.546875 67.25 C-118.99515625 67.1675 -118.4434375 67.085 -117.875 67 C-117.875 66.34 -117.875 65.68 -117.875 65 C-117.13636719 64.64808594 -116.39773438 64.29617187 -115.63671875 63.93359375 C-109.22587119 60.81370224 -103.23618282 57.44135116 -97.34765625 53.41796875 C-94.80530066 51.96003024 -92.76078573 51.39750537 -89.875 51 C-89.875 50.34 -89.875 49.68 -89.875 49 C-88.58586513 48.32845067 -87.29359796 47.66291141 -86 47 C-85.28070313 46.62875 -84.56140625 46.2575 -83.8203125 45.875 C-81.875 45 -81.875 45 -79.875 45 C-79.545 44.01 -79.215 43.02 -78.875 42 C-74.94777596 40.03638798 -71.2179862 38.65802821 -66.875 38 C-66.875 37.34 -66.875 36.68 -66.875 36 C-65.12548432 35.04078278 -63.37536756 34.08266183 -61.625 33.125 C-60.65046875 32.59132812 -59.6759375 32.05765625 -58.671875 31.5078125 C-57.01312196 30.61356854 -55.34014441 29.74379295 -53.640625 28.9296875 C-51.69304956 28.01553293 -51.69304956 28.01553293 -49.875 26 C-48.53869313 25.29821959 -47.18032978 24.63816415 -45.8125 24 C-40.83012549 21.56674733 -36.07699054 18.82790871 -31.3125 16 C-30.57563965 15.56316895 -29.8387793 15.12633789 -29.07958984 14.67626953 C-27.65290769 13.83022498 -26.22630921 12.98403932 -24.79980469 12.13769531 C-22.3580814 10.69446465 -19.90554032 9.27275746 -17.4375 7.875 C-16.77878906 7.50117188 -16.12007812 7.12734375 -15.44140625 6.7421875 C-13.875 6 -13.875 6 -11.875 6 C-11.545 5.34 -11.215 4.68 -10.875 4 C-7.41413233 1.71162255 -4.18451037 0 0 0 Z " fill="#FFFFFF" transform="translate(401.875,187)"/>
<path d="" fill="#FFFFFF" transform="translate(0,0)"/>
<path d="" fill="#FFFFFF" transform="translate(0,0)"/>
<path d="" fill="#FFFFFF" transform="translate(0,0)"/>
<path d="" fill="#FFFFFF" transform="translate(0,0)"/>
</svg>
